<?xml version="1.0" encoding="utf-8"?>
<!-- Generator: Adobe Illustrator 16.0.0, SVG Export Plug-In . SVG Version: 6.00 Build 0)  -->
<!DOCTYPE svg PUBLIC "-//W3C//DTD SVG 1.0//EN" "http://www.w3.org/TR/2001/REC-SVG-20010904/DTD/svg10.dtd">
<svg version="1.0" id="Layer_1" xmlns="http://www.w3.org/2000/svg" xmlns:xlink="http://www.w3.org/1999/xlink" x="0px" y="0px"
	 width="342px" height="118px" viewBox="0 0 342 118" enable-background="new 0 0 342 118" xml:space="preserve">
<g>
	<g>
		
			<linearGradient id="SVGID_1_" gradientUnits="userSpaceOnUse" x1="516.8145" y1="591.6504" x2="516.8145" y2="520.5898" gradientTransform="matrix(1 0 0 1 -450 -491)">
			<stop  offset="0" style="stop-color:#308748"/>
			<stop  offset="0.578" style="stop-color:#3BA955"/>
			<stop  offset="1" style="stop-color:#42BD5C"/>
		</linearGradient>
		<path fill="url(#SVGID_1_)" d="M38.402,89.717l8.044-11.447c4.848,5.054,12.375,9.385,21.864,9.385
			c8.147,0,11.963-3.608,11.963-7.633c0-11.963-39.603-3.608-39.603-29.496c0-11.448,9.901-20.937,26.093-20.937
			c10.932,0,20.008,3.3,26.814,9.592L85.43,50.114c-5.568-5.156-12.995-7.527-20.008-7.527c-6.187,0-9.694,2.68-9.694,6.806
			c0,10.83,39.5,3.508,39.5,29.187c0,12.582-9.076,22.07-27.537,22.07C54.387,100.65,44.899,96.215,38.402,89.717z"/>
		
			<linearGradient id="SVGID_2_" gradientUnits="userSpaceOnUse" x1="576.8887" y1="591.6504" x2="576.8887" y2="539.3604" gradientTransform="matrix(1 0 0 1 -450 -491)">
			<stop  offset="0" style="stop-color:#308748"/>
			<stop  offset="0.578" style="stop-color:#3BA955"/>
			<stop  offset="1" style="stop-color:#42BD5C"/>
		</linearGradient>
		<path fill="url(#SVGID_2_)" d="M101.517,74.453c0-14.439,10.728-26.093,25.785-26.093c14.954,0,24.959,11.138,24.959,27.332v3.094
			h-37.027c0.929,6.085,5.879,11.14,14.336,11.14c4.229,0,10.004-1.754,13.201-4.848l5.878,8.661
			c-4.95,4.539-12.787,6.912-20.522,6.912C112.965,100.65,101.517,90.439,101.517,74.453z M127.301,59.088
			c-8.148,0-11.654,5.672-12.169,10.621h24.546C139.264,64.965,135.965,59.088,127.301,59.088z"/>
		
			<linearGradient id="SVGID_3_" gradientUnits="userSpaceOnUse" x1="637.0137" y1="591.6504" x2="637.0137" y2="521.623" gradientTransform="matrix(1 0 0 1 -450 -491)">
			<stop  offset="0" style="stop-color:#308748"/>
			<stop  offset="0.578" style="stop-color:#3BA955"/>
			<stop  offset="1" style="stop-color:#42BD5C"/>
		</linearGradient>
		<path fill="url(#SVGID_3_)" d="M161.747,99.412v-68.79h13.097v25.372c3.918-5.157,9.488-7.634,15.365-7.634
			c12.688,0,22.072,9.901,22.072,26.093c0,16.709-9.486,26.197-22.072,26.197c-5.98,0-11.447-2.684-15.365-7.633v6.393h-13.097
			V99.412z M186.188,88.996c7.527,0,12.582-5.879,12.582-14.543c0-8.561-5.053-14.439-12.582-14.439
			c-4.33,0-9.076,2.478-11.346,5.777v17.635C177.111,86.623,181.857,88.996,186.188,88.996z"/>
		
			<linearGradient id="SVGID_4_" gradientUnits="userSpaceOnUse" x1="678.7305" y1="590.4121" x2="678.7305" y2="519.6641" gradientTransform="matrix(1 0 0 1 -450 -491)">
			<stop  offset="0" style="stop-color:#308748"/>
			<stop  offset="0.578" style="stop-color:#3BA955"/>
			<stop  offset="1" style="stop-color:#42BD5C"/>
		</linearGradient>
		<path fill="url(#SVGID_4_)" d="M220.943,36.397c0-4.331,3.508-7.734,7.733-7.734c4.332,0,7.841,3.404,7.841,7.734
			c0,4.332-3.509,7.837-7.841,7.837C224.449,44.234,220.943,40.729,220.943,36.397z M222.182,99.412V49.598h13.098v49.814H222.182z"
			/>
	</g>
	<path opacity="0.5" fill="#FFFFFF" enable-background="new    " d="M86.626,93.105c0,0,10.473-8.299,5.138-21.34
		C91.764,71.766,93.147,84.414,86.626,93.105z"/>
	<path opacity="0.5" fill="#FFFFFF" enable-background="new    " d="M49.543,37.401c0,0-10.473,8.3-5.138,21.34
		C44.405,58.742,43.022,46.097,49.543,37.401z"/>
	<path opacity="0.5" fill="#FFFFFF" enable-background="new    " d="M122.817,50.986c0,0-13.36,0.233-17.041,13.834
		C105.775,64.82,112.356,53.934,122.817,50.986z"/>
	<path opacity="0.5" fill="#FFFFFF" enable-background="new    " d="M190.348,98.831c0,0,13.34,0.743,18.006-12.552
		C208.354,86.279,200.992,96.656,190.348,98.831z"/>
	<g>
		
			<linearGradient id="SVGID_5_" gradientUnits="userSpaceOnUse" x1="711.9199" y1="528.4404" x2="711.9199" y2="506.3506" gradientTransform="matrix(1 0 0 1 -450 -491)">
			<stop  offset="0" style="stop-color:#308748"/>
			<stop  offset="0.578" style="stop-color:#3BA955"/>
			<stop  offset="1" style="stop-color:#42BD5C"/>
		</linearGradient>
		<path fill="url(#SVGID_5_)" d="M273.934,36.663c0,0-16.824,7.047-25.848-21.313c0,0,5.658,3.515,11.705,3.527
			c6.047,0.012,17.604,2.13,15.768,15.596c0,0-4.006-9.023-17.158-11.816C258.4,22.657,269.521,27.96,273.934,36.663z"/>
		
			<linearGradient id="SVGID_6_" gradientUnits="userSpaceOnUse" x1="744.9248" y1="529.4834" x2="744.9248" y2="514.6934" gradientTransform="matrix(1 0 0 1 -450 -491)">
			<stop  offset="0" style="stop-color:#308748"/>
			<stop  offset="0.578" style="stop-color:#3BA955"/>
			<stop  offset="1" style="stop-color:#42BD5C"/>
		</linearGradient>
		<path fill="url(#SVGID_6_)" d="M285.443,37.214c0,0,10.588,7.396,20.154-13.521c0,0-4.221,1.796-8.084,1.592
			c-3.863-0.207-12.398,1.841-13.262,10.48c0,0,5.461-7.439,12.825-7.752C297.078,28.014,291.086,30.139,285.443,37.214z"/>
		<path fill="#7F3008" d="M275.848,36.495c0,0,5.866,10.576,2.984,13.529c-0.291,2.277-0.027,3.816,3.188,0.891
			c-0.172-1.019-1.557-2.174-0.895-5.585c0.664-3.414,3.051-7.018,3.051-7.018s-2.992,0.834-3.523,3.837
			C280.65,42.149,279.445,37.521,275.848,36.495z"/>
		
			<linearGradient id="SVGID_7_" gradientUnits="userSpaceOnUse" x1="735.0352" y1="337.5752" x2="735.0352" y2="286.5127" gradientTransform="matrix(0.9503 0.3112 -0.3112 0.9503 -329.4849 -450.5361)">
			<stop  offset="0" style="stop-color:#C8481B"/>
			<stop  offset="0.3377" style="stop-color:#D25820"/>
			<stop  offset="0.9987" style="stop-color:#EB832D"/>
			<stop  offset="1" style="stop-color:#EB832D"/>
		</linearGradient>
		<path fill="url(#SVGID_7_)" d="M247.309,66.496c3.885-11.859,14.685-19.645,27.938-17.501c1.524,0.246,1.551,5.309,3.133,5.828
			c1.562,0.511,4.554-3.569,5.913-2.882c12.094,6.117,16.227,18.818,12.333,30.708c-4.118,12.574-16.044,20.656-30.485,17.066
			c-0.742-0.186-0.726-2.74-1.48-2.988c-0.758-0.248-2.258,1.823-2.967,1.532C248.021,92.631,243.193,79.064,247.309,66.496z
			 M283.885,78.475c2.369-7.238,0.18-14.901-7.543-17.432c-7.623-2.496-13.924,2.387-16.293,9.625
			c-2.402,7.334-0.211,14.998,7.412,17.494C275.184,90.689,281.482,85.809,283.885,78.475z"/>
		<path opacity="0.5" fill="#FFFFFF" enable-background="new    " d="M248.232,77.787c0,0,0.033,12.15,12.688,18.497
			C260.922,96.284,250.84,87.914,248.232,77.787z"/>
		<path opacity="0.5" fill="#FFFFFF" enable-background="new    " d="M296.043,72.473c0,0-0.141-11.395-12.051-18.124
			C283.992,54.349,293.51,62.818,296.043,72.473z"/>
	</g>
	<path opacity="0.5" fill="#FFFFFF" enable-background="new    " d="M226.495,98h7.104v-7.111C233.6,90.889,233.697,98,226.495,98z"
		/>
</g>
</svg>
